<?xml version="1.0" standalone="no"?>
<!DOCTYPE svg PUBLIC "-//W3C//DTD SVG 20010904//EN"
 "http://www.w3.org/TR/2001/REC-SVG-20010904/DTD/svg10.dtd">
<svg version="1.0" xmlns="http://www.w3.org/2000/svg"
 width="256.000000pt" height="256.000000pt" viewBox="0 0 256.000000 256.000000"
 preserveAspectRatio="xMidYMid meet">

<g transform="translate(0.000000,256.000000) scale(0.100000,-0.100000)"
fill="#000000" stroke="none">
<path d="M1020 1640 c-35 -35 -83 -147 -104 -241 -4 -17 -29 -43 -74 -77 -67
-50 -132 -114 -163 -161 l-16 -25 -44 36 c-80 64 -135 90 -203 95 -166 14
-230 -85 -171 -263 33 -100 137 -291 190 -349 l40 -44 985 -10 985 -10 19 22
c14 18 17 32 12 72 -7 65 -47 182 -84 248 -28 49 -30 61 -35 192 -6 155 -30
254 -71 302 l-24 28 -97 -22 c-53 -13 -120 -33 -149 -46 l-52 -24 -85 33
c-117 45 -270 75 -419 81 l-125 6 -60 54 c-57 52 -148 103 -207 117 -20 5 -33
1 -48 -14z m131 -139 c49 -32 89 -68 89 -80 0 -5 -20 -11 -45 -13 -51 -6 -75
-22 -75 -50 0 -30 28 -33 58 -6 29 26 67 51 94 61 11 4 6 -9 -16 -38 -40 -51
-71 -127 -62 -150 11 -29 39 -11 55 34 21 57 85 127 136 147 l40 16 -40 -40
c-73 -72 -122 -207 -76 -207 15 0 20 7 47 75 26 61 90 123 148 143 l47 16 -53
-53 c-79 -77 -110 -155 -66 -164 12 -2 22 8 31 31 20 47 72 103 121 131 71 41
163 45 96 5 -31 -19 -39 -46 -17 -55 7 -2 33 4 58 15 55 25 131 26 184 3 36
-17 40 -22 40 -55 0 -20 -1 -37 -1 -37 -1 0 -18 7 -37 15 -20 8 -65 15 -99 15
-70 0 -115 -20 -144 -65 -23 -35 -21 -122 5 -203 l19 -63 -23 -9 c-26 -10 -55
-47 -55 -71 0 -9 9 -28 21 -43 21 -27 64 -35 97 -17 14 7 24 -3 55 -61 l38
-71 -663 7 c-644 7 -664 8 -684 28 -30 27 -148 249 -173 325 -26 78 -27 133
-2 164 28 34 122 39 182 9 53 -27 115 -75 190 -148 36 -35 63 -53 75 -50 31 6
28 38 -6 73 l-33 34 22 35 c26 42 106 116 179 164 28 19 52 38 52 42 0 4 11
11 24 14 15 4 26 16 30 33 4 16 17 54 29 86 26 67 41 71 108 28z m1055 -193
c17 -27 33 -140 34 -231 0 -92 1 -98 23 -106 12 -5 27 -7 32 -5 10 4 45 -49
45 -67 0 -4 -13 -15 -30 -24 -16 -9 -30 -22 -30 -31 0 -23 31 -29 61 -12 15 9
30 14 33 10 16 -15 2 -40 -29 -55 -59 -28 -42 -67 21 -47 19 7 38 10 41 6 3
-3 8 -26 11 -52 l5 -47 -258 7 c-143 4 -267 12 -276 17 -22 11 -120 209 -154
311 -14 43 -26 99 -27 124 -2 40 2 50 27 71 25 22 36 25 86 21 71 -5 140 -45
245 -141 75 -70 106 -81 112 -41 2 15 -18 39 -73 89 -42 38 -91 79 -110 92
-19 13 -35 25 -35 27 0 9 85 58 122 70 83 28 114 31 124 14z"/>
<path d="M920 968 c-26 -28 -26 -58 1 -92 28 -36 80 -36 108 0 12 15 21 34 21
44 0 10 -9 29 -21 44 -27 34 -79 36 -109 4z"/>
<path d="M1097 913 c-13 -12 -7 -40 14 -67 22 -29 69 -35 112 -15 19 9 30 7
58 -10 42 -26 72 -26 127 -1 42 19 52 36 30 58 -8 8 -20 7 -46 -3 -51 -22 -71
-19 -103 16 l-28 30 -47 -27 -47 -28 -21 27 c-22 27 -37 33 -49 20z"/>
</g>
</svg>
